<svg id="svg" fill="#eeeeee" stroke="#eeeeee" width="448" height="448" version="1.1" viewBox="143 143 514 514" xmlns="http://www.w3.org/2000/svg" stroke-width="0">
    <g id="IconSvg_bgCarrier" stroke-width="0"></g>
    <g id="IconSvg_tracerCarrier" stroke-linecap="round" stroke-linejoin="round" stroke="#CCCCCC" stroke-width="48">
      <path xmlns="http://www.w3.org/2000/svg" d="m593.65 179.58h-385.73c-15.746 0-28.34 12.594-28.34 28.34v385.73c0 15.742 12.594 28.34 28.34 28.34h385.73c15.742 0 28.34-12.594 28.34-28.34l-0.003907-385.73c-1.5742-15.746-14.168-28.34-28.34-28.34zm-129.1 266.07c4.7227 4.7227 4.7227 14.168 0 18.895-4.7227 4.7227-14.168 4.7227-18.895 0l-45.656-45.66-45.656 45.656c-4.7227 4.7227-14.168 4.7227-18.895 0-4.7227-4.7227-4.7227-14.168 0-18.895l45.656-45.656-45.656-45.656c-4.7227-4.7227-4.7227-14.168 0-18.895 4.7227-4.7227 14.168-4.7227 18.895 0l45.656 45.656 45.656-45.656c4.7227-4.7227 14.168-4.7227 18.895 0 4.7227 4.7227 4.7227 14.168 0 18.895l-45.66 45.66z"></path>

      </g>
     <g id="IconSvg_iconCarrier">
      <path xmlns="http://www.w3.org/2000/svg" d="m593.65 179.58h-385.73c-15.746 0-28.34 12.594-28.34 28.34v385.73c0 15.742 12.594 28.34 28.34 28.34h385.73c15.742 0 28.34-12.594 28.34-28.34l-0.003907-385.73c-1.5742-15.746-14.168-28.34-28.34-28.34zm-129.1 266.07c4.7227 4.7227 4.7227 14.168 0 18.895-4.7227 4.7227-14.168 4.7227-18.895 0l-45.656-45.66-45.656 45.656c-4.7227 4.7227-14.168 4.7227-18.895 0-4.7227-4.7227-4.7227-14.168 0-18.895l45.656-45.656-45.656-45.656c-4.7227-4.7227-4.7227-14.168 0-18.895 4.7227-4.7227 14.168-4.7227 18.895 0l45.656 45.656 45.656-45.656c4.7227-4.7227 14.168-4.7227 18.895 0 4.7227 4.7227 4.7227 14.168 0 18.895l-45.66 45.66z"></path>

      </g>
      </svg>